<?xml version="1.0" standalone="no"?>
<!DOCTYPE svg PUBLIC "-//W3C//DTD SVG 20010904//EN"
 "http://www.w3.org/TR/2001/REC-SVG-20010904/DTD/svg10.dtd">
<svg version="1.0" xmlns="http://www.w3.org/2000/svg"
 width="989.000000pt" height="1280.000000pt" viewBox="0 0 989.000000 1280.000000"
 preserveAspectRatio="xMidYMid meet">
<metadata>
Created by potrace 1.15, written by Peter Selinger 2001-2017
</metadata>
<g transform="translate(0.000000,1280.000000) scale(0.100000,-0.100000)"
fill="#000000" stroke="none">
<path d="M5020 10509 c-824 -59 -1516 -296 -2142 -736 -358 -251 -705 -586
-970 -936 -742 -979 -1081 -2295 -918 -3555 95 -725 351 -1324 795 -1858 501
-603 1241 -1019 2060 -1159 545 -92 1310 -63 1879 71 138 33 363 102 504 155
189 71 382 160 382 176 0 12 -178 566 -186 581 -1 2 -49 -19 -106 -46 -353
-169 -742 -275 -1183 -324 -189 -21 -726 -18 -895 5 -372 51 -657 133 -955
276 -279 134 -486 280 -700 495 -483 485 -746 1096 -827 1921 -18 185 -15 641
6 845 66 658 221 1183 491 1670 559 1004 1452 1632 2525 1775 166 22 486 30
670 16 641 -49 1121 -224 1540 -559 501 -402 809 -1005 907 -1777 25 -197 25
-675 0 -905 -56 -514 -190 -929 -401 -1245 -132 -196 -281 -335 -450 -416
-151 -74 -338 -90 -452 -40 -99 43 -176 147 -211 287 -24 95 -24 429 0 599 9
66 112 644 227 1285 116 640 210 1167 210 1171 0 10 -124 63 -228 98 -320 107
-687 164 -1062 164 -794 0 -1444 -262 -1975 -797 -453 -457 -738 -1077 -805
-1755 -13 -134 -13 -406 1 -529 45 -417 190 -725 451 -958 143 -128 319 -214
530 -261 126 -27 445 -25 585 5 323 70 586 210 824 440 136 131 218 228 321
382 39 58 76 106 84 108 14 3 15 -4 34 -150 47 -380 255 -651 580 -756 254
-83 645 -65 985 46 142 46 374 163 494 249 114 82 296 254 399 378 401 480
618 1157 661 2058 38 800 -158 1541 -567 2137 -356 519 -878 923 -1484 1149
-478 178 -1077 259 -1628 220z m599 -2797 c40 -11 78 -25 83 -30 10 -10 -214
-1289 -259 -1472 -107 -442 -384 -863 -686 -1042 -110 -66 -224 -100 -347
-106 -310 -13 -509 154 -587 492 -25 108 -22 418 6 602 71 467 273 885 573
1182 209 207 425 328 683 382 126 27 424 22 534 -8z"/>
</g>
</svg>
